<mxfile host="app.diagrams.net" agent="Mozilla/5.0 (Windows NT 10.0; Win64; x64) AppleWebKit/537.36 (KHTML, like Gecko) Chrome/133.0.0.0 Safari/537.36 OPR/118.0.0.0" version="26.2.12">
  <diagram name="Strona-1" id="IvmJUWWYAiuel7kVuwOy">
    <mxGraphModel dx="2024" dy="1126" grid="1" gridSize="10" guides="1" tooltips="1" connect="1" arrows="1" fold="1" page="1" pageScale="1" pageWidth="827" pageHeight="1169" math="0" shadow="0">
      <root>
        <mxCell id="0" />
        <mxCell id="1" parent="0" />
        <mxCell id="PN3j98BIjmgV5FSvL1AX-1" value="" style="rounded=1;whiteSpace=wrap;html=1;" parent="1" vertex="1">
          <mxGeometry x="4" width="820" height="70" as="geometry" />
        </mxCell>
        <mxCell id="PN3j98BIjmgV5FSvL1AX-6" value="Paczka24" style="text;html=1;align=center;verticalAlign=middle;resizable=0;points=[];autosize=1;strokeColor=none;fillColor=none;fontStyle=1;fontSize=19;" parent="1" vertex="1">
          <mxGeometry x="180" y="15" width="110" height="40" as="geometry" />
        </mxCell>
        <mxCell id="PN3j98BIjmgV5FSvL1AX-7" value="" style="html=1;verticalLabelPosition=bottom;align=center;labelBackgroundColor=#ffffff;verticalAlign=top;strokeWidth=2;shadow=0;dashed=0;shape=mxgraph.ios7.icons.settings;" parent="1" vertex="1">
          <mxGeometry x="780" y="20" width="30" height="30" as="geometry" />
        </mxCell>
        <mxCell id="PN3j98BIjmgV5FSvL1AX-10" value="Użytkownik: X" style="text;html=1;align=center;verticalAlign=middle;resizable=0;points=[];autosize=1;strokeColor=none;fillColor=none;" parent="1" vertex="1">
          <mxGeometry x="280" y="21.4" width="100" height="30" as="geometry" />
        </mxCell>
        <mxCell id="PN3j98BIjmgV5FSvL1AX-14" value="" style="html=1;verticalLabelPosition=bottom;align=center;labelBackgroundColor=#ffffff;verticalAlign=top;strokeWidth=2;shadow=0;dashed=0;shape=mxgraph.ios7.icons.most_viewed;pointerEvents=1" parent="1" vertex="1">
          <mxGeometry x="730" y="23.6" width="28.2" height="22.8" as="geometry" />
        </mxCell>
        <mxCell id="PN3j98BIjmgV5FSvL1AX-18" value="Wyszukaj..." style="rounded=1;whiteSpace=wrap;html=1;align=left;textOpacity=50;" parent="1" vertex="1">
          <mxGeometry x="620" y="85" width="180" height="25" as="geometry" />
        </mxCell>
        <mxCell id="PN3j98BIjmgV5FSvL1AX-19" value="" style="sketch=0;outlineConnect=0;fontColor=#232F3E;gradientColor=none;fillColor=#232F3D;strokeColor=none;dashed=0;verticalLabelPosition=bottom;verticalAlign=top;align=center;html=1;fontSize=12;fontStyle=0;aspect=fixed;pointerEvents=1;shape=mxgraph.aws4.magnifying_glass_2;" parent="1" vertex="1">
          <mxGeometry x="770" y="87.5" width="20" height="20" as="geometry" />
        </mxCell>
        <mxCell id="PN3j98BIjmgV5FSvL1AX-22" value="" style="verticalLabelPosition=bottom;verticalAlign=top;html=1;shape=mxgraph.basic.x" parent="1" vertex="1">
          <mxGeometry x="30" y="7.5" width="80" height="55" as="geometry" />
        </mxCell>
        <mxCell id="PN3j98BIjmgV5FSvL1AX-26" value="Wpisz numer przesyłki" style="rounded=0;whiteSpace=wrap;html=1;textOpacity=60;" parent="1" vertex="1">
          <mxGeometry x="260" y="280" width="290" height="20" as="geometry" />
        </mxCell>
        <mxCell id="PN3j98BIjmgV5FSvL1AX-27" value="Śledź przesyłkę" style="text;html=1;align=center;verticalAlign=middle;whiteSpace=wrap;rounded=0;fontSize=19;fontStyle=1" parent="1" vertex="1">
          <mxGeometry x="320" y="250" width="170" height="30" as="geometry" />
        </mxCell>
        <mxCell id="PN3j98BIjmgV5FSvL1AX-28" value="" style="html=1;whiteSpace=wrap;shape=isoCube2;backgroundOutline=1;isoAngle=15;" parent="1" vertex="1">
          <mxGeometry x="490" y="230" width="50" height="50" as="geometry" />
        </mxCell>
        <mxCell id="8VmDItg4nQ9LfFQrZR_M-1" value="Szukaj" style="rounded=0;whiteSpace=wrap;html=1;" vertex="1" parent="1">
          <mxGeometry x="360" y="310" width="90" height="30" as="geometry" />
        </mxCell>
        <mxCell id="8VmDItg4nQ9LfFQrZR_M-2" value="Wyloguj" style="rounded=0;whiteSpace=wrap;html=1;" vertex="1" parent="1">
          <mxGeometry x="600" y="23.6" width="90" height="25" as="geometry" />
        </mxCell>
        <mxCell id="8VmDItg4nQ9LfFQrZR_M-3" value="" style="shape=waypoint;sketch=0;fillStyle=solid;size=6;pointerEvents=1;points=[];fillColor=none;resizable=0;rotatable=0;perimeter=centerPerimeter;snapToPoint=1;" vertex="1" parent="1">
          <mxGeometry x="20" y="118" width="20" height="20" as="geometry" />
        </mxCell>
        <mxCell id="8VmDItg4nQ9LfFQrZR_M-4" value="" style="shape=waypoint;sketch=0;fillStyle=solid;size=6;pointerEvents=1;points=[];fillColor=none;resizable=0;rotatable=0;perimeter=centerPerimeter;snapToPoint=1;" vertex="1" parent="1">
          <mxGeometry x="20" y="168" width="20" height="20" as="geometry" />
        </mxCell>
        <mxCell id="8VmDItg4nQ9LfFQrZR_M-5" value="Moje Przesyłki" style="text;html=1;align=center;verticalAlign=middle;resizable=0;points=[];autosize=1;strokeColor=none;fillColor=none;fontStyle=4" vertex="1" parent="1">
          <mxGeometry x="30" y="113" width="100" height="30" as="geometry" />
        </mxCell>
        <mxCell id="8VmDItg4nQ9LfFQrZR_M-6" value="Moje Konto" style="text;html=1;align=center;verticalAlign=middle;resizable=0;points=[];autosize=1;strokeColor=none;fillColor=none;fontStyle=4" vertex="1" parent="1">
          <mxGeometry x="30" y="163" width="80" height="30" as="geometry" />
        </mxCell>
      </root>
    </mxGraphModel>
  </diagram>
</mxfile>
